<mxfile host="65bd71144e">
    <diagram id="Qq6hUrceugEmPmboAaxj" name="文章">
        <mxGraphModel dx="1130" dy="779" grid="1" gridSize="10" guides="1" tooltips="1" connect="1" arrows="1" fold="1" page="1" pageScale="1" pageWidth="1600" pageHeight="900" math="0" shadow="0">
            <root>
                <mxCell id="0"/>
                <mxCell id="1" parent="0"/>
                <mxCell id="3" value="" style="swimlane;startSize=0;" vertex="1" parent="1">
                    <mxGeometry x="10" y="30" width="290" height="540" as="geometry">
                        <mxRectangle x="10" y="30" width="50" height="40" as="alternateBounds"/>
                    </mxGeometry>
                </mxCell>
                <mxCell id="5" value="&lt;h2 style=&quot;margin: 10px 0px; padding: 0px; line-height: 1.5; color: rgb(49, 70, 89); font-family: Lato, &amp;quot;PingFang SC&amp;quot;, &amp;quot;Microsoft YaHei&amp;quot;, sans-serif; text-align: left; background-color: rgb(255, 255, 255);&quot; id=&quot;1358233010&quot;&gt;&lt;span style=&quot;font-weight: normal;&quot;&gt;&lt;font style=&quot;font-size: 15px;&quot;&gt;Mistune解析器&lt;/font&gt;&lt;/span&gt;&lt;/h2&gt;" style="rounded=1;whiteSpace=wrap;html=1;" vertex="1" parent="3">
                    <mxGeometry x="85" y="220" width="120" height="60" as="geometry"/>
                </mxCell>
                <mxCell id="6" value="API组装" style="rounded=1;whiteSpace=wrap;html=1;fontSize=15;" vertex="1" parent="3">
                    <mxGeometry x="85" y="380" width="120" height="60" as="geometry"/>
                </mxCell>
                <mxCell id="7" value="数据库" style="rounded=1;whiteSpace=wrap;html=1;fontSize=15;" vertex="1" parent="3">
                    <mxGeometry x="85" y="60" width="120" height="60" as="geometry"/>
                </mxCell>
                <mxCell id="8" value="" style="endArrow=classic;html=1;fontSize=15;exitX=0.5;exitY=1;exitDx=0;exitDy=0;entryX=0.5;entryY=0;entryDx=0;entryDy=0;" edge="1" parent="3" source="7" target="5">
                    <mxGeometry width="50" height="50" relative="1" as="geometry">
                        <mxPoint x="110" y="200" as="sourcePoint"/>
                        <mxPoint x="160" y="150" as="targetPoint"/>
                    </mxGeometry>
                </mxCell>
                <mxCell id="9" value="获取Markdown" style="text;html=1;align=center;verticalAlign=middle;resizable=0;points=[];autosize=1;strokeColor=none;fillColor=none;fontSize=15;" vertex="1" parent="3">
                    <mxGeometry x="150" y="155" width="120" height="30" as="geometry"/>
                </mxCell>
                <mxCell id="10" value="" style="endArrow=classic;html=1;fontSize=15;exitX=0.5;exitY=1;exitDx=0;exitDy=0;entryX=0.5;entryY=0;entryDx=0;entryDy=0;" edge="1" parent="3" source="5" target="6">
                    <mxGeometry width="50" height="50" relative="1" as="geometry">
                        <mxPoint x="330" y="240" as="sourcePoint"/>
                        <mxPoint x="380" y="190" as="targetPoint"/>
                    </mxGeometry>
                </mxCell>
                <mxCell id="11" value="将md解析成html" style="text;html=1;strokeColor=none;fillColor=none;align=center;verticalAlign=middle;whiteSpace=wrap;rounded=0;fontSize=15;" vertex="1" parent="3">
                    <mxGeometry x="150" y="320" width="120" height="30" as="geometry"/>
                </mxCell>
                <mxCell id="15" value="后端" style="text;html=1;align=center;verticalAlign=middle;resizable=0;points=[];autosize=1;strokeColor=none;fillColor=none;fontSize=15;" vertex="1" parent="3">
                    <mxGeometry x="120" width="50" height="30" as="geometry"/>
                </mxCell>
                <mxCell id="18" value="" style="endArrow=classic;html=1;fontSize=15;entryX=0;entryY=0.5;entryDx=0;entryDy=0;dashed=1;" edge="1" parent="3" source="6" target="7">
                    <mxGeometry width="50" height="50" relative="1" as="geometry">
                        <mxPoint x="4.289321881345245" y="430" as="sourcePoint"/>
                        <mxPoint x="24.289321881345245" y="440" as="targetPoint"/>
                        <Array as="points">
                            <mxPoint x="30" y="410"/>
                            <mxPoint x="30" y="90"/>
                        </Array>
                    </mxGeometry>
                </mxCell>
                <mxCell id="4" value="" style="swimlane;startSize=0;" vertex="1" parent="1">
                    <mxGeometry x="450" y="30" width="290" height="540" as="geometry">
                        <mxRectangle x="450" y="30" width="50" height="40" as="alternateBounds"/>
                    </mxGeometry>
                </mxCell>
                <mxCell id="12" value="axios请求" style="rounded=1;whiteSpace=wrap;html=1;fontSize=15;" vertex="1" parent="4">
                    <mxGeometry x="85" y="60" width="120" height="60" as="geometry"/>
                </mxCell>
                <mxCell id="13" value="赋值data" style="rounded=1;whiteSpace=wrap;html=1;fontSize=15;" vertex="1" parent="4">
                    <mxGeometry x="85" y="220" width="120" height="60" as="geometry"/>
                </mxCell>
                <mxCell id="14" value="渲染到页面" style="rounded=1;whiteSpace=wrap;html=1;fontSize=15;" vertex="1" parent="4">
                    <mxGeometry x="85" y="380" width="120" height="60" as="geometry"/>
                </mxCell>
                <mxCell id="16" value="前端" style="text;html=1;align=center;verticalAlign=middle;resizable=0;points=[];autosize=1;strokeColor=none;fillColor=none;fontSize=15;" vertex="1" parent="4">
                    <mxGeometry x="120" width="50" height="30" as="geometry"/>
                </mxCell>
                <mxCell id="21" value="" style="endArrow=classic;html=1;fontSize=15;exitX=0.5;exitY=1;exitDx=0;exitDy=0;entryX=0.5;entryY=0;entryDx=0;entryDy=0;" edge="1" parent="4" source="12" target="13">
                    <mxGeometry width="50" height="50" relative="1" as="geometry">
                        <mxPoint x="320" y="210" as="sourcePoint"/>
                        <mxPoint x="370" y="160" as="targetPoint"/>
                    </mxGeometry>
                </mxCell>
                <mxCell id="22" value="" style="endArrow=classic;html=1;fontSize=15;exitX=0.5;exitY=1;exitDx=0;exitDy=0;entryX=0.5;entryY=0;entryDx=0;entryDy=0;" edge="1" parent="4" source="13" target="14">
                    <mxGeometry width="50" height="50" relative="1" as="geometry">
                        <mxPoint x="-110" y="520" as="sourcePoint"/>
                        <mxPoint x="-60" y="470" as="targetPoint"/>
                    </mxGeometry>
                </mxCell>
                <mxCell id="19" value="" style="endArrow=classic;html=1;dashed=1;fontSize=15;exitX=0;exitY=0.25;exitDx=0;exitDy=0;entryX=1;entryY=0.25;entryDx=0;entryDy=0;" edge="1" parent="1" source="12" target="6">
                    <mxGeometry width="50" height="50" relative="1" as="geometry">
                        <mxPoint x="350" y="240" as="sourcePoint"/>
                        <mxPoint x="400" y="190" as="targetPoint"/>
                    </mxGeometry>
                </mxCell>
                <mxCell id="20" value="" style="endArrow=classic;html=1;fontSize=15;exitX=1;exitY=0.75;exitDx=0;exitDy=0;entryX=0;entryY=0.75;entryDx=0;entryDy=0;" edge="1" parent="1" source="6" target="12">
                    <mxGeometry width="50" height="50" relative="1" as="geometry">
                        <mxPoint x="340" y="450" as="sourcePoint"/>
                        <mxPoint x="390" y="400" as="targetPoint"/>
                    </mxGeometry>
                </mxCell>
            </root>
        </mxGraphModel>
    </diagram>
</mxfile>